<svg xmlns="http://www.w3.org/2000/svg" viewBox="0 0 230 190" xml:space="preserve"><path fill="#FFF" d="M17.954 98.017c-4.372-4.963-3.037-10.766 2.769-12.59 1.248-.392 2.6-1.369 3.291-2.463 3.362-5.316 6.516-10.764 9.655-16.018-2.97-3.703-6.48-7.265-9.006-11.425-3.794-6.247-3.524-10.184-1.168-12.284 0-6.145-.2-11.424.107-16.673.11-1.864 1.454-3.656 2.234-5.481 1.394 1.48 3.187 2.746 4.116 4.476 4.613 8.59 11.665 14.37 20.483 18.066 1.61.675 3.97.802 5.543.138 18.834-7.957 37.36-6.086 55.654 1.623 2.703 1.139 4.687 1.202 7.388.075 18.463-7.698 37.131-9.818 56.11-1.551 1.406.612 3.586.395 5.057-.243 9.091-3.94 16.4-9.94 21.136-18.864.778-1.466 2.377-2.496 3.597-3.727.867 1.625 2.387 3.212 2.482 4.88.316 5.552.12 11.133.385 16.604.325 2.186 1.609 4.847.804 6.474-3.094 6.255-6.858 12.179-10.769 18.91l10.463 17.746c6.871.604 8.972 4.742 4.345 12.014-2.281.517-3.928.753-5.952 1.063-2.319-.681-4.203-1.706-6.214-2.127-3.24-.677-6.647-1.625-9.83-1.225-3.527.443-3.972 3.794-3.952 6.974.008 1.462-.418 2.942-.757 4.389-5.308 22.656-30.887 33.4-49.47 20.727-7.46-5.088-10.977-12.576-12.115-21.485-2.117-.31-4.057-.594-6.38-.94-1.856.122-3.329.307-5.263.481-2.417.096-4.374.203-6.586.325-.984 7.516-3.577 14.078-9.162 19.02-9.793 8.667-20.965 10.404-32.826 5.254-12.057-5.235-18.567-14.834-20.379-27.878-.34-2.444-1.919-6.129-3.683-6.643-2.934-.855-6.534.146-9.753.836-2.49.534-4.825 1.787-7.486 2.432-1.795-.49-3.332-.69-4.868-.89m10.943-46.7c-.208.391-.415.783-.502 1.875 9.53 14.988 24.844 19.576 40.91 20.558 14.121.863 25.345 5.454 32.491 17.509 3.04 5.127 6.242 5.782 11.336 4.362-.367-8.674-2.577-16.673-8.094-23.51-7.91-9.802-18.964-14.087-30.665-17.158-11.188-2.937-22.918-4.49-32.725-11.188-4.935-3.37-9.209-7.706-13.781-11.606l-1.342.459c1.86 4.978 3.501 10.055 5.655 14.904 1.608 3.62 1.094 5.032-3.283 3.795m160.44-7.427c-6.925 2.703-13.778 5.612-20.793 8.06-9.997 3.489-20.545 5.711-30.075 10.154-13.814 6.44-20.027 18.493-20.668 33.608 4.892 1.057 7.958.447 10.758-4.328 6.232-10.629 15.952-17.267 28.5-17.281 11.544-.014 21.913-3.372 31.953-8.237 6.257-3.031 11.542-7.434 14.092-14.028l-5.118-.662c.44-1.485.632-3.109 1.368-4.429 2.506-4.493 4.63-9.005 3.356-14.32-4.339 3.757-8.554 7.407-13.373 11.463M51.111 89.94c-4.879 11.616-.746 24.826 10.28 32.86 15.09 10.996 37.106 2.03 39.058-15.905 1.281-11.776-9.118-24.07-22.69-26.824-11.674-2.368-21.238.986-26.648 9.87m124.362-4.943c-6.866-6.198-15.032-6.467-23.447-4.851-10.747 2.063-21.244 12.66-22.009 21.853-1.5 18.043 16.24 30.465 33.213 23.7 18.048-7.19 23.433-30.73 12.243-40.7M64.377 46.262 62.2 47.605c21.97 5.236 44.06 9.632 53.23 34.695 9.292-24.78 31.12-29.38 52.51-34.678-.249-.337-.388-.717-.65-.842-.736-.351-1.502-.682-2.293-.872-15.63-3.757-30.641-1.741-45.028 5.142-2.71 1.296-4.907 1.942-7.882.496-14.98-7.282-30.64-9.411-47.71-5.284m133.526 31.357-5.937-7.943-17.59 7.084c3.629.365 6.123.502 8.576.896 2.395.384 4.747 1.032 7.118 1.564-1.42 2.05-2.853 4.094-4.245 6.165-.147.218-.055.597-.05.516h16.573c-1.61-3.054-2.827-5.361-4.445-8.282M37.401 85.724h6.84c-.8-1.046-1.349-1.596-1.694-2.253-.78-1.485-1.46-3.022-2.181-4.538 1.63-.424 3.238-1.007 4.895-1.236 2.916-.402 5.861-.588 8.794-.865l-.07-1.153-15.45-6.15-10.329 16.195z"/><path fill="#FFF" d="M207.056 98.694c1.646-.237 3.293-.473 5.31-.706 3.79 14.796 3.31 29.278-2.577 43.486-8.014 19.339-29.029 32.255-49.926 30.105-8.403-.865-16.729-2.467-25.108-3.6-6.364-.862-11.784 1.194-16.214 5.833-1.724 1.805-3.367 3.405-5.67.644-6.034-7.232-13.954-7.48-22.34-5.903-11.271 2.12-22.495 4.658-34.073 2.004-21.119-4.84-36.991-21.528-39.199-43.043-.967-9.436.457-19.117.745-29.092 1.486-.205 3.023-.004 4.822.906-.116 8.797-1.467 16.985-.66 24.954 1.522 15.057 8.315 27.525 21.692 35.656 12.293 7.472 25.444 7.41 39.014 4.62 11.319-2.327 22.805-4.892 32.616 4.888 7.407-7.627 16.426-7.73 25.745-6.27 4.257.667 8.446 1.779 12.708 2.396 16.207 2.347 31.054-.51 42.302-13.285 13.766-15.635 16.12-33.929 10.813-53.593"/><path fill="#FFF" d="M117.96 105.08c-1.093 4.3-.608 7.937 2.799 11.309 3.993 3.953 7.712 8.214 11.233 12.596 1.016 1.265 1.658 3.596 1.254 5.113-2.652 9.953-8.05 18.4-14.968 25.954-2.013 2.198-3.619 2.319-5.719.041-6.954-7.54-12.33-15.992-14.966-25.954-.407-1.537.198-3.88 1.21-5.155 3.086-3.888 6.418-7.627 10-11.062 3.362-3.224 5.068-6.79 4.329-11.89 1.499-.645 2.972-.83 4.828-.953m8.548 23c-3.671-4.15-7.342-8.3-11.22-12.68-4.697 5.283-9.063 10.04-13.207 14.982-.809.965-1.36 2.834-1.01 3.973 2.758 8.976 7.36 16.894 14.145 23.716 6.596-5.865 10.18-13.259 13.532-20.85 1.516-3.433 1.705-6.315-2.24-9.142M86.007 96.019c5.047.725 5.332 4.864 5.615 8.512.406 5.243-4.106 10.221-9.494 11.159-5.342.93-10.802-2.43-12.45-7.66-1.654-5.248.715-11.483 5.638-13.504 2.01-.825 4.533-.398 7.17-.186-2.492.884-4.614 2.457-3.125 5.339.69 1.335 3.612 2.532 5.175 2.193 3.43-.742 2.586-3.463 1.471-5.853m59.165-1.956c9.117-3.399 17.786 4.396 15.494 13.365-1.156 4.522-5.205 7.92-10.067 8.272-4.74.345-8.326-1.757-10.611-5.882-2.383-4.3-1.497-8.982 2.856-13.331.446.738.196 1.409.423 1.677 1.154 1.366 2.5 3.728 3.65 3.657 1.516-.095 2.911-2.127 4.359-3.327-1.412-1.162-2.799-2.356-4.248-3.47-.544-.417-1.233-.646-1.856-.96"/></svg>